# xmcd
#
# Track frame offsets:
#	300
#	17036
#	36083
#	53911
#	73819
#	89556
#	106292
#	125339
#	143167
#	163075
#
# Disc length: 2384 seconds
#
# Revision: 1
# Processed by: cddbd v1.5.2PL0 Copyright (c) Steve Scherf et al.
# Submitted via: audiograbber 1.83.01
#
DISCID=8c094c0a
DTITLE=Various Artist - Karaoke Countr's Top Hits-Female
DYEAR=2006
DGENRE=Karaoke
TTITLE0=Gretchen Wilson - All Jacked Up
TTITLE1=Shania Twain - Shoes
TTITLE2=Carrie Underwood - Inside Your Heaven
TTITLE3=Faith Hill - Like We Never Loved At All
TTITLE4=Terri Clark - She Didn't Have Time
TTITLE5=Gretchen Wilson - All Jacked Up BG
TTITLE6=Shania Twain - Shoes BG
TTITLE7=Carrie Underwood - Inside Your Heaven BG
TTITLE8=Faith Hill - Like We Never Loved At All BG
TTITLE9=Terri Clark - She Didn't Have Time BG
EXTD=
EXTT0=
EXTT1=
EXTT2=
EXTT3=
EXTT4=
EXTT5=
EXTT6=
EXTT7=
EXTT8=
EXTT9=
PLAYORDER=
